HIERARCHY
ROOT hips_JNT
{
    OFFSET 0 0 0
    CHANNELS 6 Xposition Yposition Zposition Zrotation Xrotation Yrotation
    JOINT spine_JNT
    {
        OFFSET -2.09235e-06 11.8934 0.353976
        CHANNELS 3 Zrotation Xrotation Yrotation
        JOINT spine1_JNT
        {
            OFFSET -1.26041e-06 18.6411 -1.28445
            CHANNELS 3 Zrotation Xrotation Yrotation
            JOINT spine2_JNT
            {
                OFFSET 0.00502016 12.8711 -1.94892
                CHANNELS 3 Zrotation Xrotation Yrotation
                JOINT neck_JNT
                {
                    OFFSET 0.0058107 14.8928 -2.30562
                    CHANNELS 3 Zrotation Xrotation Yrotation
                    JOINT head_JNT
                    {
                        OFFSET 0.00339375 9.1392 0.0642024
                        CHANNELS 3 Zrotation Xrotation Yrotation
                        End Site
                        {
                            OFFSET 0 0 0
                        }
                    }
                }
                JOINT l_shoulder_JNT
                {
                    OFFSET 3.67433 11.8096 0.716738
                    CHANNELS 3 Zrotation Xrotation Yrotation
                    JOINT l_arm_JNT
                    {
                        OFFSET 13.2658 -1.17667 -7.56709
                        CHANNELS 3 Zrotation Xrotation Yrotation
                        JOINT l_forearm_JNT
                        {
                            OFFSET 29.4417 -0.0109553 0.00339672
                            CHANNELS 3 Zrotation Xrotation Yrotation
                            JOINT l_hand_JNT
                            {
                                OFFSET 26.1766 -0.0097394 0.00303686
                                CHANNELS 3 Zrotation Xrotation Yrotation
                                JOINT l_handThumb1_JNT
                                {
                                    OFFSET 4.74579 -1.93115 2.54528
                                    CHANNELS 3 Zrotation Xrotation Yrotation
                                    JOINT l_handThumb2_JNT
                                    {
                                        OFFSET 2.70336 -1.23636 2.29439
                                        CHANNELS 3 Zrotation Xrotation Yrotation
                                        JOINT l_handThumb3_JNT
                                        {
                                            OFFSET 3.16268 -1.90277 1.38406
                                            CHANNELS 3 Zrotation Xrotation Yrotation
                                            End Site
                                            {
                                                OFFSET 0 0 0
                                            }
                                        }
                                    }
                                }
                                JOINT l_handIndex1_JNT
                                {
                                    OFFSET 11.688 -0.350833 2.67938
                                    CHANNELS 3 Zrotation Xrotation Yrotation
                                    JOINT l_handIndex2_JNT
                                    {
                                        OFFSET 4.15632 -0.00733137 0.188317
                                        CHANNELS 3 Zrotation Xrotation Yrotation
                                        JOINT l_handIndex3_JNT
                                        {
                                            OFFSET 3.2907 -0.0368237 0.12604
                                            CHANNELS 3 Zrotation Xrotation Yrotation
                                            End Site
                                            {
                                                OFFSET 0 0 0
                                            }
                                        }
                                    }
                                }
                                JOINT l_handMiddle1_JNT
                                {
                                    OFFSET 11.9542 0.363231 0.158637
                                    CHANNELS 3 Zrotation Xrotation Yrotation
                                    JOINT l_handMiddle2_JNT
                                    {
                                        OFFSET 4.50233 -0.022161 0.0750706
                                        CHANNELS 3 Zrotation Xrotation Yrotation
                                        JOINT l_handMiddle3_JNT
                                        {
                                            OFFSET 3.54008 -0.0390291 0.0604741
                                            CHANNELS 3 Zrotation Xrotation Yrotation
                                            End Site
                                            {
                                                OFFSET 0 0 0
                                            }
                                        }
                                    }
                                }
                                JOINT l_handRing1_JNT
                                {
                                    OFFSET 11.41 0.0918627 -2.13364
                                    CHANNELS 3 Zrotation Xrotation Yrotation
                                    JOINT l_handRing2_JNT
                                    {
                                        OFFSET 4.29875 -0.0437379 -0.0229135
                                        CHANNELS 3 Zrotation Xrotation Yrotation
                                        JOINT l_handRing3_JNT
                                        {
                                            OFFSET 3.37301 -0.0678539 -0.00969693
                                            CHANNELS 3 Zrotation Xrotation Yrotation
                                            End Site
                                            {
                                                OFFSET 0 0 0
                                            }
                                        }
                                    }
                                }
                                JOINT l_handPinky1_JNT
                                {
                                    OFFSET 10.2731 -0.384104 -4.004
                                    CHANNELS 3 Zrotation Xrotation Yrotation
                                    JOINT l_handPinky2_JNT
                                    {
                                        OFFSET 3.45849 0.00594854 -0.216508
                                        CHANNELS 3 Zrotation Xrotation Yrotation
                                        JOINT l_handPinky3_JNT
                                        {
                                            OFFSET 2.89208 0.0147462 -0.172339
                                            CHANNELS 3 Zrotation Xrotation Yrotation
                                            End Site
                                            {
                                                OFFSET 0 0 0
                                            }
                                        }
                                    }
                                }
                            }
                        }
                    }
                }
                JOINT r_shoulder_JNT
                {
                    OFFSET -3.66572 11.8125 0.715889
                    CHANNELS 3 Zrotation Xrotation Yrotation
                    JOINT r_arm_JNT
                    {
                        OFFSET -13.2649 -1.1668 -7.57011
                        CHANNELS 3 Zrotation Xrotation Yrotation
                        JOINT r_forearm_JNT
                        {
                            OFFSET -29.4418 0.0109553 -0.00339448
                            CHANNELS 3 Zrotation Xrotation Yrotation
                            JOINT r_hand_JNT
                            {
                                OFFSET -26.1767 0.00972748 -0.00301227
                                CHANNELS 3 Zrotation Xrotation Yrotation
                                JOINT r_handThumb1_JNT
                                {
                                    OFFSET -4.74793 -1.92775 2.54418
                                    CHANNELS 3 Zrotation Xrotation Yrotation
                                    JOINT r_handThumb2_JNT
                                    {
                                        OFFSET -2.70464 -1.23435 2.29378
                                        CHANNELS 3 Zrotation Xrotation Yrotation
                                        JOINT r_handThumb3_JNT
                                        {
                                            OFFSET -3.16441 -1.9004 1.38333
                                            CHANNELS 3 Zrotation Xrotation Yrotation
                                            End Site
                                            {
                                                OFFSET 0 0 0
                                            }
                                        }
                                    }
                                }
                                JOINT r_handIndex1_JNT
                                {
                                    OFFSET -11.7143 -0.404739 2.68616
                                    CHANNELS 3 Zrotation Xrotation Yrotation
                                    JOINT r_handIndex2_JNT
                                    {
                                        OFFSET -4.15651 -0.00733137 0.187699
                                        CHANNELS 3 Zrotation Xrotation Yrotation
                                        JOINT r_handIndex3_JNT
                                        {
                                            OFFSET -3.29072 -0.0367999 0.125611
                                            CHANNELS 3 Zrotation Xrotation Yrotation
                                            End Site
                                            {
                                                OFFSET 0 0 0
                                            }
                                        }
                                    }
                                }
                                JOINT r_handMiddle1_JNT
                                {
                                    OFFSET -11.9538 0.372016 0.155906
                                    CHANNELS 3 Zrotation Xrotation Yrotation
                                    JOINT r_handMiddle2_JNT
                                    {
                                        OFFSET -4.50254 -0.0189424 0.0740178
                                        CHANNELS 3 Zrotation Xrotation Yrotation
                                        JOINT r_handMiddle3_JNT
                                        {
                                            OFFSET -3.54019 -0.0363708 0.0596538
                                            CHANNELS 3 Zrotation Xrotation Yrotation
                                            End Site
                                            {
                                                OFFSET 0 0 0
                                            }
                                        }
                                    }
                                }
                                JOINT r_handRing1_JNT
                                {
                                    OFFSET -11.436 0.0383377 -2.1268
                                    CHANNELS 3 Zrotation Xrotation Yrotation
                                    JOINT r_handRing2_JNT
                                    {
                                        OFFSET -4.29844 -0.0437617 -0.0235535
                                        CHANNELS 3 Zrotation Xrotation Yrotation
                                        JOINT r_handRing3_JNT
                                        {
                                            OFFSET -3.37304 -0.0679612 -0.0101708
                                            CHANNELS 3 Zrotation Xrotation Yrotation
                                            End Site
                                            {
                                                OFFSET 0 0 0
                                            }
                                        }
                                    }
                                }
                                JOINT r_handPinky1_JNT
                                {
                                    OFFSET -10.2986 -0.437462 -3.99699
                                    CHANNELS 3 Zrotation Xrotation Yrotation
                                    JOINT r_handPinky2_JNT
                                    {
                                        OFFSET -3.45854 0.00578165 -0.217007
                                        CHANNELS 3 Zrotation Xrotation Yrotation
                                        JOINT r_handPinky3_JNT
                                        {
                                            OFFSET -2.89182 0.0149727 -0.172819
                                            CHANNELS 3 Zrotation Xrotation Yrotation
                                            End Site
                                            {
                                                OFFSET 0 0 0
                                            }
                                        }
                                    }
                                }
                            }
                        }
                    }
                }
            }
        }
    }
    JOINT l_upleg_JNT
    {
        OFFSET 8.73919 -0.000184774 -5.26197e-06
        CHANNELS 3 Zrotation Xrotation Yrotation
        JOINT l_leg_JNT
        {
            OFFSET 5.05774 -40.9824 -1.23411
            CHANNELS 3 Zrotation Xrotation Yrotation
            JOINT l_foot_JNT
            {
                OFFSET 2.77379 -38.429 -6.08625
                CHANNELS 3 Zrotation Xrotation Yrotation
                JOINT l_toebase_JNT
                {
                    OFFSET 0.807787 -13.0671 15.9427
                    CHANNELS 3 Zrotation Xrotation Yrotation
                    End Site
                    {
                        OFFSET 0 0 0
                    }
                }
            }
        }
    }
    JOINT r_upleg_JNT
    {
        OFFSET -8.73919 0 0
        CHANNELS 3 Zrotation Xrotation Yrotation
        JOINT r_leg_JNT
        {
            OFFSET -5.05777 -40.9826 -1.23412
            CHANNELS 3 Zrotation Xrotation Yrotation
            JOINT r_foot_JNT
            {
                OFFSET -2.7738 -38.4291 -6.08627
                CHANNELS 3 Zrotation Xrotation Yrotation
                JOINT r_toebase_JNT
                {
                    OFFSET -0.807784 -13.0671 15.9426
                    CHANNELS 3 Zrotation Xrotation Yrotation
                    End Site
                    {
                        OFFSET 0 0 0
                    }
                }
            }
        }
    }
}
MOTION
Frames: 4
Frame Time: 0.033333
-0.0555098 87.9163 -0.166444 0.353896 -2.19571 -26.487 -0.886464 -0.0485637 0.0559529 0.67978 2.63659 28.1544 -1.0693e-07 -1.16727e-08 0 11.2652 -10.5647 -8.14897 -15.5464 3.18196 2.05206 -1.06513e-07 9.00464e-08 0 -59.8974 19.4116 -8.71729 -63.7026 15.634 -30.3445 -0 0 0 4.10661 20.7048 -22.2077 -0 0 0 -17.6314 -0.269211 1.73546 -27.9126 7.99418 1.99009 -36.0344 10.0086 3.26294 -23.8837 6.92548 1.46657 -32.5694 6.14503 1.79575 -41.9738 7.61856 2.92626 -27.8883 5.34445 1.32705 -37.0792 -3.45029 -1.15757 -47.7078 -4.23059 -1.87047 -31.772 -3.01407 -0.858656 -40.795 -7.44471 -2.77214 -52.6257 -9.0309 -4.47302 -34.9151 -6.53036 -2.05549 -1.06513e-07 9.00464e-08 0 65.1384 -5.92111 -14.7277 14.5163 4.65054 91.6803 -1.70755e-06 -1.70755e-06 0 -4.10661 20.7048 22.2077 -0 0 0 16.2003 0.227552 1.59982 25.6204 7.39124 -1.68326 33.0564 9.29347 -2.7628 21.9279 6.3923 -1.23984 29.9073 5.69468 -1.52312 38.5309 7.10174 -2.48445 25.6124 4.94129 -1.12325 34.0623 -3.20575 0.984361 43.8221 -3.96096 1.59393 29.1882 -2.79199 0.727389 37.4503 -6.93396 2.35239 48.2921 -8.49206 3.81237 32.0588 -6.0597 1.74176 -5.11884 -21.7106 -29.2295 -4.45048 26.6507 2.95792 -3.94741 -3.96822 -1.99873 -4.26887e-07 8.53774e-07 0.0559529 -8.56084 4.89193 1.13848 -5.36831 60.0444 3.10334 -8.53774e-07 1.46209e-05 0 1.70755e-06 1.06722e-07 0 
-0.191998 87.8538 -0.673226 -0.161647 -2.16616 -27.7248 -0.567258 -0.0514092 0.0395647 0.780877 2.67569 28.1783 -1.55301e-18 3.33505e-09 0 11.1158 -10.3405 -8.05081 -15.3294 3.00027 1.99951 4.29779e-07 4.06043e-07 0 -56.9328 31.8182 -11.6322 -52.4632 19.2667 -47.2003 5.81633e-06 -6.87944e-13 0 4.10661 20.7048 -22.2077 -0 0 0 -17.493 -0.26503 1.72233 -27.6905 7.93637 1.95838 -35.7457 9.94052 3.21265 -23.6943 6.87423 1.4429 -32.3116 6.10202 1.76896 -41.6403 7.56971 2.88233 -27.6679 5.3058 1.30624 -36.7872 -3.42703 -1.14328 -47.3317 -4.20533 -1.84307 -31.5219 -2.99284 -0.846723 -40.471 -7.39636 -2.73031 -52.2058 -8.98094 -4.40725 -34.6385 -6.4855 -2.02402 4.29779e-07 4.06043e-07 0 65.3421 -3.23276 -13.4017 11.5495 1.64775 93.5209 1.70755e-06 1.70755e-06 0 -4.10661 20.7048 22.2077 -0 0 0 16.0186 0.222509 1.5826 25.3299 7.31386 -1.64611 32.6793 9.2009 -2.70265 21.68 6.32408 -1.21045 29.5697 5.63663 -1.48935 38.0945 7.03429 -2.43158 25.3238 4.88955 -1.10073 33.6795 -3.17406 0.962653 43.3292 -3.92542 1.56069 28.8603 -2.76338 0.712165 37.0263 -6.86742 2.3016 47.743 -8.42018 3.73143 31.6966 -5.99887 1.70451 -4.17018 -21.662 -28.8452 -4.53508 26.8782 2.58542 -4.23427 -4.28043 -0.775308 -6.4033e-07 -1.28066e-06 0 -8.67092 6.0244 1.92898 -3.4708 54.7904 1.63131 -0.398614 1.2559 0.0559529 -2.56132e-06 -1.06722e-06 0 
-0.380941 87.712 -1.51091 -0.706606 -2.09735 -29.1005 -0.170042 -0.0527647 0 0.896593 2.71453 28.1 -1.0422e-10 1.33402e-08 0 10.9062 -9.97759 -7.9156 -15.0586 2.75891 1.93141 -1.0422e-10 1.33402e-08 0 -52.9963 41.3905 -15.5422 -41.1208 18.715 -61.2324 -2.34788e-05 -6.83019e-06 0 4.10661 20.7048 -22.2077 -0 0 0 -17.321 -0.259883 1.70635 -27.4148 7.86442 1.92125 -35.3873 9.85564 3.15115 -23.4591 6.81048 1.41497 -31.9915 6.04842 1.73456 -41.2262 7.50869 2.82805 -27.3943 5.25768 1.28205 -36.4246 -3.39803 -1.11836 -46.8646 -4.17371 -1.80964 -31.2114 -2.9664 -0.828029 -40.0688 -7.33599 -2.67734 -51.6845 -8.91823 -4.32604 -34.295 -6.42958 -1.98616 -1.0422e-10 1.33402e-08 0 65.217 -1.01156 -11.9631 9.12452 -0.954801 94.9628 -8.53774e-06 -1.70755e-06 0 -4.10661 20.7048 22.2077 -0 0 0 15.8146 0.216912 1.56169 25.0038 7.22673 -1.60373 32.256 9.09647 -2.63609 21.4016 6.24733 -1.18166 29.1906 5.57119 -1.45101 37.6045 6.95805 -2.37161 24.9996 4.83129 -1.07118 33.2495 -3.13831 0.937944 42.7755 -3.88515 1.52209 28.4921 -2.73115 0.694358 36.5503 -6.79225 2.24548 47.1264 -8.33855 3.64161 31.2899 -5.93026 1.66173 -2.9503 -21.8279 -28.2233 -4.58337 27.1242 2.40992 -4.78486 -4.46906 0.118694 9.93923e-17 -4.26887e-07 0 -8.88671 7.26015 2.6665 -1.77467 49.1497 0.4614 -0.794728 2.50982 0.205584 -2.83268e-15 1.60083e-07 0 
-0.587141 87.4255 -2.66373 -1.26185 -1.98264 -30.5773 0.29752 -0.0552746 0.0395647 1.03267 2.7546 27.9032 2.13443e-07 -2.33454e-08 0 10.6284 -9.46941 -7.73614 -14.7194 2.43697 1.84604 2.13443e-07 -2.33454e-08 0 -47.7515 48.5339 -20.6964 -31.2397 15.5984 -72.2952 9.8184e-06 6.83019e-06 0 4.10661 20.7048 -22.2077 -0 0 0 -17.1072 -0.253553 1.68651 -27.0722 7.77473 1.87507 -34.9421 9.74961 3.07547 -23.1668 6.73107 1.38138 -31.5937 5.98154 1.69392 -40.7117 7.4323 2.76025 -27.0543 5.19771 1.24927 -35.9739 -3.36178 -1.09216 -46.2841 -4.13401 -1.76719 -30.8254 -2.93341 -0.809871 -39.5689 -7.26044 -2.61552 -51.0368 -8.83926 -4.22626 -33.8682 -6.35976 -1.93748 2.13443e-07 -2.33454e-08 0 64.7959 0.815557 -10.3992 7.11034 -3.21639 96.1288 -0 0 0 -4.10661 20.7048 22.2077 -0 0 0 15.587 0.210752 1.53999 24.6402 7.12927 -1.55868 31.7842 8.97942 -2.56108 21.0911 6.16155 -1.1467 28.7679 5.49793 -1.41109 37.0582 6.87243 -2.30534 24.6381 4.76614 -1.04304 32.7701 -3.09822 0.911709 42.1581 -3.83981 1.48091 28.0814 -2.69507 0.672601 36.0195 -6.70786 2.18327 46.4391 -8.24638 3.54223 30.8365 -5.85339 1.61636 -1.55496 -22.3327 -27.4179 -4.6409 27.6719 2.28248 -5.55031 -4.68154 0.813727 1.70755e-06 4.26887e-07 0 -9.23255 8.58102 3.29683 -0.177061 43.1659 -0.4614 -1.17559 3.76579 0.360452 5.54609e-14 -3.30837e-06 0.0559529 
